<svg xmlns="http://www.w3.org/2000/svg" width="24" height="24" viewBox="0 0 24 24">
  <g id="credlix_level" data-name="credlix level" transform="translate(13229 22847)">
    <circle id="Ellipse_1583" data-name="Ellipse 1583" cx="12" cy="12" r="12" transform="translate(-13229 -22847)" fill="#fff"/>
    <g id="wTlZ2a" transform="translate(-13224.588 -22843.605)">
      <g id="Group_72" data-name="Group 72">
        <path id="Path_181" data-name="Path 181" d="M203.313,174.55c-.344.115-.642.213-.94.317A7.482,7.482,0,0,0,199.137,177a8.35,8.35,0,0,0-1.768,3.443,9.178,9.178,0,0,0-.322,3.138,7.106,7.106,0,0,0,2.1,4.729,4.62,4.62,0,0,0,6.447.18,6.588,6.588,0,0,0,1.87-2.824c.086-.242.1-.249.355-.249h6.138c.049,0,.1,0,.147,0,.128-.007.165.047.128.171a11.312,11.312,0,0,1-.707,1.846,8.049,8.049,0,0,1-2.013,2.554,6.462,6.462,0,0,1-3.063,1.478,6.984,6.984,0,0,1-1.923.049.431.431,0,0,1-.077-.029.967.967,0,0,1,.307-.126,9.616,9.616,0,0,0,3.016-1.656,6.7,6.7,0,0,0,1.935-2.54c.055-.131.038-.176-.109-.176q-1.235,0-2.471,0a.3.3,0,0,0-.3.213,8.45,8.45,0,0,1-1.421,2.128,6.761,6.761,0,0,1-3.736,2.134,6.229,6.229,0,0,1-4.9-1.065,8.224,8.224,0,0,1-3.183-4.568,10.087,10.087,0,0,1-.39-3.362,9.241,9.241,0,0,1,1.794-5.089,6.907,6.907,0,0,1,4.036-2.746,5.72,5.72,0,0,1,2.191-.116c.033.009.064.02.1.032Z" transform="translate(-195.182 -174.462)" fill="#022b5c" stroke="#022b5c" stroke-width="0.5"/>
        <path id="Path_182" data-name="Path 182" d="M360.837,180.943h-3.027c-.31,0-.344-.022-.45-.318a6.792,6.792,0,0,0-1.488-2.443c-.1-.1-.208-.194-.31-.293-.026-.026-.064-.053-.049-.1s.063-.034.1-.037a3.254,3.254,0,0,1,2.234.631,3.339,3.339,0,0,1,.756.772.484.484,0,0,0,.432.215c.388,0,.774-.017,1.161-.018.354,0,.708.013,1.062.015.085,0,.2.019.242-.056s-.055-.145-.1-.211a5.735,5.735,0,0,0-1.831-1.805,4.742,4.742,0,0,0-2.04-.653,4.557,4.557,0,0,0-3.587,1.327,6.744,6.744,0,0,0-2.1,4.248,7.571,7.571,0,0,0,.715,4.572,7.335,7.335,0,0,0,1.16,1.671c.041.044.084.087.121.134s.129.1.1.173-.116.038-.18.047a2.5,2.5,0,0,1-2.011-.592,4.369,4.369,0,0,1-1.2-1.585,7.545,7.545,0,0,1-.559-2.33,9.98,9.98,0,0,1-.063-1.45,8.811,8.811,0,0,1,.91-3.734,9.375,9.375,0,0,1,1.337-1.968,6.791,6.791,0,0,1,2.73-1.987,6.315,6.315,0,0,1,2-.393,6.434,6.434,0,0,1,2.99.571,6.8,6.8,0,0,1,1.784,1.209,8.619,8.619,0,0,1,2.448,4.1c.071.252.044.287-.219.287h-3.06v0Z" transform="translate(-345.1 -174.76)" fill="#fecd2f" stroke="#fecd2f" stroke-width="0.5"/>
      </g>
    </g>
  </g>
</svg>
